<?xml version="1.0" standalone="no"?>
<!DOCTYPE svg PUBLIC "-//W3C//DTD SVG 20010904//EN"
 "http://www.w3.org/TR/2001/REC-SVG-20010904/DTD/svg10.dtd">
<svg version="1.0" xmlns="http://www.w3.org/2000/svg"
 width="318.000000pt" height="318.000000pt" viewBox="0 0 318.000000 318.000000"
 preserveAspectRatio="xMidYMid meet">
<metadata>
Created by potrace 1.11, written by Peter Selinger 2001-2013
</metadata>
<g transform="translate(0.000000,318.000000) scale(0.100000,-0.100000)"
fill="#000000" stroke="none">
<path d="M695 2185 c-301 -53 -525 -313 -528 -613 -2 -108 7 -166 38 -248 60
-158 188 -292 350 -363 85 -38 162 -51 275 -47 169 5 305 63 426 182 104 103
173 245 189 391 8 72 37 117 93 144 33 16 53 20 85 15 66 -11 126 -66 133
-121 1 -11 5 -45 9 -75 22 -185 163 -379 342 -469 302 -153 675 -46 845 245
29 50 66 139 69 166 0 4 5 22 10 40 11 38 13 165 4 223 -10 64 -51 172 -87
232 -93 154 -250 261 -438 300 -53 11 -207 5 -267 -10 -178 -46 -334 -170
-413 -327 l-30 -59 -52 24 c-94 43 -218 41 -308 -5 l-36 -18 -33 63 c-18 35
-42 74 -53 87 -11 13 -28 32 -37 43 -34 44 -139 120 -206 151 -122 55 -249 72
-380 49z m295 -236 c100 -47 183 -134 224 -234 52 -123 35 -283 -43 -402 -45
-68 -80 -101 -153 -142 -113 -63 -235 -74 -357 -32 -167 58 -288 222 -295 401
-2 47 15 133 36 184 39 93 106 165 199 216 77 41 119 50 224 47 80 -2 99 -7
165 -38z m1510 30 c128 -29 239 -121 297 -246 31 -67 36 -90 38 -161 3 -94 -5
-132 -43 -211 -131 -272 -491 -331 -704 -115 -137 139 -167 360 -71 524 56 96
175 185 278 211 45 11 154 10 205 -2z"/>
</g>
</svg>
